# xmcd
#
# Track frame offsets:
#	150
#	17985
#	32770
#	48747
#	65522
#	82692
#	97382
#	114027
#	135652
#	151167
#
# Disc length: 2282 seconds
#
# Revision: 1
# Processed by: cddbd v1.5.1PL0 Copyright (c) Steve Scherf et al.
# Submitted via: CDex 1.50Beta5
#
DISCID=7b08e80a
DTITLE=河合奈保子 - SKY PARK
DYEAR=1989
DGENRE=Pop
TTITLE0=ちょっぴりパッショネイト
TTITLE1=恋のハレーション
TTITLE2=アリバイ
TTITLE3=八月のバレンタイン
TTITLE4=まどろみのスケッチ
TTITLE5=恋人形
TTITLE6=Dreamy Sailing
TTITLE7=初めての疑惑
TTITLE8=レモネード・サンバ
TTITLE9=Sky Park
EXTD=
EXTT0=
EXTT1=
EXTT2=
EXTT3=
EXTT4=
EXTT5=
EXTT6=
EXTT7=
EXTT8=
EXTT9=
PLAYORDER=
